<?xml version="1.0" encoding="UTF-8"?>
<svg id="Layer_2" data-name="Layer 2" xmlns="http://www.w3.org/2000/svg" viewBox="0 0 39.29 31.14">
  <defs>
    <style>
      .cls-1 {
        fill: #231f20;
      }
    </style>
  </defs>
  <path class="cls-1" d="m39.16.73c-1.31-2.01-9.66.33-22.72,4.76C7.55,8.5,2.36,12.15.59,16.64c-.71,1.8-.78,3.39-.2,4.72.53,1.22,1.63,2.2,3.09,2.78,1.02.4,2.79.27,4.84.11,2.42-.18,5.17-.39,6.41.43,1.77,1.16,2.1,3.02,2.33,4.38.13.75.23,1.29.53,1.6.31.31,1.37.49,2.41.49.96,0,1.9-.15,2.24-.49.38-.38.42-1.1.48-2.18.07-1.31.17-3.11.92-5.24.74-2.09,4.38-6.54,7.9-10.84,5.76-7.03,8.38-10.47,7.61-11.66Zm-8.16,11.21c-3.56,4.35-7.24,8.85-8.02,11.05-.78,2.22-.89,4.08-.96,5.44-.04.82-.08,1.52-.27,1.72-.44.44-3.27.34-3.65,0-.15-.15-.24-.69-.33-1.22-.24-1.4-.61-3.52-2.64-4.85-1.45-.95-4.2-.74-6.85-.54-1.88.14-3.66.28-4.53-.06-1.29-.5-2.25-1.35-2.7-2.4-.5-1.15-.43-2.56.21-4.17,1.69-4.29,6.74-7.8,15.42-10.74,6.17-2.09,20.63-6.99,21.9-5.04.58.88-4.13,6.63-7.56,10.83Z"/>
  <path id="_3" data-name="3" class="cls-1" d="m15.13,8.31c-.55-.03-1.09.16-1.51.54-.41.37-.66.89-.69,1.44-.06,1.15.83,2.14,1.98,2.19.04,0,.07,0,.11,0,1.1,0,2.03-.87,2.09-1.98h0c.06-1.15-.83-2.14-1.98-2.19Z"/>
  <path id="_2" data-name="2" class="cls-1" d="m12.61,12.21c-.55-.03-1.09.16-1.51.54-.41.37-.66.89-.69,1.44-.06,1.15.83,2.14,1.98,2.19.04,0,.07,0,.11,0,.52,0,1.01-.19,1.4-.54.41-.37.66-.89.69-1.44.03-.56-.16-1.09-.54-1.51-.37-.41-.89-.66-1.44-.69Z"/>
  <path id="_1" data-name="1" class="cls-1" d="m10.98,17.31c.06-1.15-.83-2.14-1.98-2.19-.55-.03-1.09.16-1.51.54-.41.37-.66.89-.69,1.44-.03.56.16,1.09.54,1.51.37.41.89.66,1.44.69.04,0,.07,0,.11,0,.52,0,1.01-.19,1.4-.54.41-.37.66-.89.69-1.44Z"/>
  <path id="_0" data-name="0" class="cls-1" d="m4.39,16.38s-.07,0-.11,0c-1.1,0-2.03.87-2.09,1.98-.06,1.15.83,2.13,1.98,2.19.04,0,.07,0,.11,0,.52,0,1.01-.19,1.4-.54.41-.37.66-.89.69-1.44.03-.56-.16-1.09-.54-1.51-.37-.41-.89-.66-1.44-.69Z"/>
  <path id="_4" data-name="4" class="cls-1" d="m11.39,18.99c-.32-.01-.62.09-.86.31-.24.21-.37.51-.39.82-.02.32.09.62.31.86s.51.37.82.39c.02,0,.04,0,.06,0,.3,0,.58-.11.8-.31.24-.21.37-.51.39-.82.02-.32-.09-.62-.31-.86s-.51-.37-.82-.39Zm.73,1.23c-.01.21-.1.41-.26.55s-.36.22-.57.2c-.21-.01-.41-.1-.55-.26s-.21-.36-.2-.57c.01-.21.1-.41.26-.55.15-.13.33-.2.53-.2.01,0,.03,0,.04,0,.21.01.41.1.55.26s.21.36.2.57h0Z"/>
  <path id="_5" data-name="5" class="cls-1" d="m22.8,15.05c-.55-.03-1.09.16-1.51.54-.41.37-.66.89-.69,1.44-.06,1.15.83,2.14,1.98,2.19.04,0,.07,0,.11,0,1.1,0,2.03-.87,2.09-1.98.03-.56-.16-1.09-.54-1.51-.37-.41-.89-.66-1.44-.69Z"/>
  <path id="_6" data-name="6" class="cls-1" d="m24.48,10.56c-1.17-.07-2.13.83-2.19,1.98h0c-.06,1.15.83,2.13,1.98,2.19.04,0,.07,0,.11,0,.52,0,1.01-.19,1.4-.54.41-.37.66-.89.69-1.44.03-.56-.16-1.09-.54-1.51-.37-.41-.89-.66-1.44-.69Z"/>
  <path id="_7" data-name="7" class="cls-1" d="m27.49,6.94s-.07,0-.11,0c-1.1,0-2.03.87-2.09,1.98-.06,1.15.83,2.14,1.98,2.19.04,0,.07,0,.11,0,1.1,0,2.03-.87,2.09-1.98.03-.56-.16-1.09-.54-1.51-.37-.41-.89-.66-1.44-.69Z"/>
  <path id="_8" data-name="8" class="cls-1" d="m31.67,4.37c-1.15-.06-2.13.83-2.19,1.98-.03.56.16,1.09.54,1.51.37.41.89.66,1.44.69.04,0,.07,0,.11,0,.52,0,1.01-.19,1.4-.54.41-.37.66-.89.69-1.44.06-1.15-.83-2.14-1.98-2.19Z"/>
  <path id="_9" data-name="9" class="cls-1" d="m21.37,11.58c.63,0,1.16-.5,1.19-1.13.03-.66-.47-1.22-1.13-1.25-.64-.03-1.22.47-1.25,1.13h0c-.03.66.47,1.22,1.13,1.25.02,0,.04,0,.06,0Z"/>
  <path id="L" class="cls-1" d="m13.23,25.33c-.56-.03-1.09.16-1.51.54-.41.37-.66.89-.69,1.44-.06,1.15.83,2.14,1.98,2.19.04,0,.07,0,.11,0,1.1,0,2.03-.87,2.09-1.98.06-1.15-.83-2.13-1.98-2.19Z"/>
  <path id="R" class="cls-1" d="m26.74,21.81c-.55-.03-1.09.16-1.51.54-.41.37-.66.89-.69,1.44-.06,1.15.83,2.14,1.98,2.19.04,0,.07,0,.11,0,.52,0,1.01-.19,1.4-.54.41-.37.66-.89.69-1.44.03-.56-.16-1.09-.54-1.51-.37-.41-.89-.66-1.44-.69Z"/>
</svg>