<?xml version="1.0" encoding="UTF-8"?>
<svg id="Layer_2" data-name="Layer 2" xmlns="http://www.w3.org/2000/svg" viewBox="0 0 39.29 31.14">
  <defs>
    <style>
      .cls-1 {
        fill: #231f20;
      }
    </style>
  </defs>
  <path class="cls-1" d="m39.16.73c-1.31-2.01-9.66.33-22.72,4.76C7.55,8.5,2.36,12.15.59,16.64c-.71,1.8-.78,3.39-.2,4.72.53,1.22,1.63,2.2,3.09,2.78,1.02.4,2.79.27,4.84.11,2.42-.18,5.17-.39,6.41.43,1.77,1.16,2.1,3.02,2.33,4.38.13.75.23,1.29.53,1.6.31.31,1.37.49,2.41.49.96,0,1.9-.15,2.24-.49.38-.38.42-1.1.48-2.18.07-1.31.17-3.11.92-5.24.74-2.09,4.38-6.54,7.9-10.84,5.76-7.03,8.38-10.47,7.61-11.66Zm-8.16,11.21c-3.56,4.35-7.24,8.85-8.02,11.05-.78,2.22-.89,4.08-.96,5.44-.04.82-.08,1.52-.27,1.72-.44.44-3.27.34-3.65,0-.15-.15-.24-.69-.33-1.22-.24-1.4-.61-3.52-2.64-4.85-1.45-.95-4.2-.74-6.85-.54-1.88.14-3.66.28-4.53-.06-1.29-.5-2.25-1.35-2.7-2.4-.5-1.15-.43-2.56.21-4.17,1.69-4.29,6.74-7.8,15.42-10.74,6.17-2.09,20.63-6.99,21.9-5.04.58.88-4.13,6.63-7.56,10.83Z"/>
</svg>